<svg width="92" height="20" viewBox="0 0 92 20" fill="none" xmlns="http://www.w3.org/2000/svg">
<path d="M4.33496 0.218872H8.49511V1.32314H7.11396V16.9734H5.87512V1.32314H4.33496V0.218872Z" fill="#333333"/>
<path d="M14.4249 2.52271C14.4472 2.52271 14.4584 2.62425 14.4584 2.82734C14.4584 3.03042 14.4556 3.23351 14.45 3.43659V3.73169C14.0092 3.73169 13.6185 3.83324 13.2781 4.03632C12.9433 4.23306 12.6141 4.59163 12.2904 5.11204V16.9735H11.0432V2.69406H12.2904V4.28383C12.4355 3.72535 12.6894 3.29379 13.0521 2.98917C13.4204 2.6782 13.878 2.52271 14.4249 2.52271Z" fill="#333333"/>
<path d="M17.0815 2.69404H18.3371V16.9734H17.0815V2.69404ZM17.0815 0.00952148H18.3287V1.38034H17.0815V0.00952148Z" fill="#333333"/>
<path d="M25.5392 6.87303C25.5392 5.75606 25.4973 5.06115 25.4136 4.78826C25.3355 4.50902 25.2406 4.27102 25.129 4.07429C25.0174 3.87755 24.8332 3.77918 24.5766 3.77918C24.3199 3.77918 24.1301 3.79822 24.0074 3.8363C23.706 3.93149 23.4856 4.20756 23.3461 4.6645C23.2066 5.1151 23.1368 5.8576 23.1368 6.89206V12.5657C23.1368 13.7779 23.2205 14.6346 23.3879 15.136C23.5609 15.631 23.8846 15.8785 24.3589 15.8785C24.8332 15.8785 25.1486 15.631 25.3048 15.136C25.461 14.641 25.5392 13.7683 25.5392 12.5181V6.87303ZM23.1368 3.7887C23.4326 2.98906 23.9878 2.58923 24.8025 2.58923C25.3718 2.58923 25.7987 2.80501 26.0832 3.23656C26.3734 3.66177 26.5632 4.21391 26.6524 4.89297C26.7417 5.56569 26.7864 6.37801 26.7864 7.32995V12.4515C26.7864 12.4705 26.7864 12.4927 26.7864 12.5181C26.7864 14.3142 26.5799 15.5358 26.167 16.1831C25.754 16.8242 25.1904 17.1446 24.4761 17.1446C24.1915 17.1446 23.9237 17.0304 23.6725 16.8019C23.427 16.5671 23.2484 16.2815 23.1368 15.9452V19.496H21.8896V2.69395H23.1368V3.7887Z" fill="#333333"/>
<path d="M35.0966 2.86539L35.105 3.2557C35.105 3.9411 35.4174 5.15961 36.0425 6.91118C36.4722 6.30192 36.8014 5.7054 37.0302 5.12153C37.2646 4.53132 37.3817 3.87447 37.3817 3.15098C37.3817 2.42749 37.312 1.91343 37.1724 1.60881C37.033 1.29783 36.7037 1.14235 36.1848 1.14235C35.5095 1.14235 35.1524 1.58342 35.1133 2.46557C35.1077 2.60519 35.1022 2.69721 35.0966 2.74164C35.0966 2.77971 35.0966 2.82097 35.0966 2.86539ZM38.6959 13.4987C39.4883 15.39 39.9682 16.5481 40.1356 16.9734H39.0977C38.9526 16.5799 38.6569 15.8628 38.2104 14.822C37.9314 15.5391 37.644 16.0532 37.3483 16.3641C37.0525 16.6751 36.7567 16.8845 36.461 16.9924C36.1708 17.1067 35.836 17.1637 35.4565 17.1637C34.6976 17.1637 34.0837 16.8655 33.615 16.2689C33.1462 15.6724 32.9119 14.8537 32.9119 13.8129C32.9119 12.7721 33.0039 12.001 33.1881 11.4996C33.3778 10.9983 33.5564 10.5572 33.7238 10.1764C33.8912 9.79563 34.4102 9.04678 35.2808 7.92981C34.3488 5.55626 33.8829 3.99187 33.8829 3.23666C33.8829 1.08523 34.6809 0.00952148 36.2768 0.00952148C37.2087 0.00952148 37.8198 0.288762 38.11 0.847241C38.4057 1.40573 38.5536 2.18633 38.5536 3.18906C38.5536 4.19179 38.3583 5.06759 37.9677 5.81643C37.5826 6.55895 37.0971 7.34272 36.5112 8.16775C36.9074 9.20861 37.4403 10.5159 38.11 12.0899C38.562 11.0109 39.0586 10.1097 39.5999 9.38626L40.1775 10.4049C39.6752 11.1157 39.1814 12.1469 38.6959 13.4987ZM37.591 13.394C36.7763 11.5282 36.1764 10.1288 35.7913 9.19586C35.3226 9.90666 34.9375 10.627 34.6362 11.3568C34.3349 12.0867 34.1814 12.9212 34.1758 13.8605C34.1758 15.2694 34.653 15.9738 35.6072 15.9738C36.1318 15.9738 36.5726 15.6248 36.9297 14.9267C37.1083 14.5649 37.3287 14.054 37.591 13.394Z" fill="#333333"/>
<path d="M51.9114 0.218872H53.3093V16.9734H52.1793V9.79558L52.3718 3.04618L50.2708 16.6116H49.0822L46.9058 3.04618L47.0983 9.79558V16.9734H45.96V0.218872H47.3578L49.6765 14.2888L51.9114 0.218872Z" fill="#333333"/>
<path d="M56.8618 2.69404H58.1176V16.9734H56.8618V2.69404ZM56.8618 0.00952148H58.109V1.38034H56.8618V0.00952148Z" fill="#333333"/>
<path d="M62.9171 4.09331C63.0286 3.66811 63.2742 3.30002 63.6537 2.98904C64.0389 2.67172 64.4909 2.51306 65.0095 2.51306C65.5287 2.51306 65.9554 2.7574 66.2906 3.24607C66.6253 3.73474 66.7926 4.46775 66.7926 5.4451V16.9733H65.5454V5.33086C65.5454 4.77872 65.4339 4.38207 65.2108 4.14091C64.9929 3.8934 64.7002 3.76965 64.3316 3.76965C63.3886 3.76965 62.9171 4.29957 62.9171 5.35942V16.9733H61.6699V2.69394H62.9171V4.09331Z" fill="#333333"/>
<path d="M73.6512 7.1016C73.6512 5.87674 73.5679 5.01999 73.4005 4.53132C73.2384 4.0363 72.9204 3.78879 72.446 3.78879C71.9717 3.78879 71.6537 4.04265 71.4921 4.55036C71.33 5.05172 71.2489 5.92434 71.2489 7.16823V12.8229C71.2489 14.1302 71.3386 14.9679 71.5168 15.3361C71.7008 15.7041 71.9717 15.8882 72.3287 15.8882C72.6858 15.8882 72.94 15.8152 73.0906 15.6692C73.247 15.5169 73.3781 15.2662 73.4839 14.9172C73.5955 14.5618 73.6512 13.87 73.6512 12.8419V7.1016ZM73.6432 0H74.8984V16.9734H73.6432V15.8882C73.3528 16.6815 72.7974 17.0781 71.9774 17.0781C71.0453 17.0718 70.4537 16.4403 70.203 15.1837C70.0632 14.4919 69.9937 13.5622 69.9937 12.3945V7.37766C69.9937 5.46106 70.1943 4.17275 70.5963 3.51273C71.0034 2.8527 71.5755 2.52269 72.3121 2.52269C72.5967 2.52269 72.8589 2.6401 73.0992 2.87491C73.3448 3.10338 73.5259 3.38262 73.6432 3.71263V0Z" fill="#333333"/>
<path fill-rule="evenodd" clip-rule="evenodd" d="M88.1958 4.57975L91.8327 8.71547C92.0558 8.96929 92.0558 9.38078 91.8327 9.63455L88.1958 13.7703C87.9727 14.0241 87.611 14.0241 87.3879 13.7703C87.1648 13.5165 87.1648 13.105 87.3879 12.8512L90.049 9.82489H79.9998V8.52518H90.049L87.3879 5.4988C87.1648 5.24501 87.1648 4.83354 87.3879 4.57975C87.611 4.32596 87.9727 4.32596 88.1958 4.57975Z" fill="#EFC224"/>
<path d="M2.28572 8.52515H0V9.82492H2.28572V8.52515Z" fill="#EFC224"/>
</svg>
